HIERARCHY
ROOT Hips
{
	OFFSET 0.00 0.00 0.00
	CHANNELS 6 Xposition Yposition Zposition Xrotation Yrotation Zrotation
	JOINT Spine
	{
		OFFSET 0.00000 1.72418 2.58627
		CHANNELS 3 Xrotation Yrotation Zrotation
		JOINT Spine1
		{
			OFFSET 0.00000 0.59880 3.39597
			CHANNELS 3 Xrotation Yrotation Zrotation
			JOINT Spine2
			{
				OFFSET 0.00000 0.30055 3.43524
				CHANNELS 3 Xrotation Yrotation Zrotation
				JOINT Spine3
				{
					OFFSET 0.00000 0.00000 3.44836
					CHANNELS 3 Xrotation Yrotation Zrotation
					JOINT Neck
					{
						OFFSET 0.00000 -1.29313 9.05195
						CHANNELS 3 Xrotation Yrotation Zrotation
						JOINT Head
						{
							OFFSET 0.00000 -0.82335 4.66946
							CHANNELS 3 Xrotation Yrotation Zrotation
							End Site
							{
								OFFSET 0.00000 0.00001 5.58203
							}
						}
					}
					JOINT RightShoulder
					{
						OFFSET -1.18828 -1.98046 6.41673
						CHANNELS 3 Xrotation Yrotation Zrotation
						JOINT RightArm
						{
							OFFSET -5.90180 0.00000 0.00000
							CHANNELS 3 Xrotation Yrotation Zrotation
							JOINT RightForeArm
							{
								OFFSET -11.45951 0.00000 0.00000
								CHANNELS 3 Xrotation Yrotation Zrotation
								JOINT RightHand
								{
									OFFSET -10.63451 0.00000 0.00000
									CHANNELS 3 Xrotation Yrotation Zrotation
									JOINT RightHandEnd
									{
										OFFSET -2.86944 0.00000 0.00000
										CHANNELS 3 Xrotation Yrotation Zrotation
										End Site
										{
											OFFSET -2.86944 0.00000 0.00000
										}
									}
									JOINT RightHandThumb1
									{
										OFFSET -1.14778 -1.91296 -0.76518
										CHANNELS 3 Yrotation Xrotation Zrotation
										End Site
										{
											OFFSET -2.77167 -0.74267 0.00000
										}
									}
								}
							}
						}
					}
					JOINT LeftShoulder
					{
						OFFSET 1.18828 -1.98046 6.41673
						CHANNELS 3 Xrotation Yrotation Zrotation
						JOINT LeftArm
						{
							OFFSET 5.90180 0.00000 0.00000
							CHANNELS 3 Xrotation Yrotation Zrotation
							JOINT LeftForeArm
							{
								OFFSET 11.45951 0.00000 0.00000
								CHANNELS 3 Xrotation Yrotation Zrotation
								JOINT LeftHand
								{
									OFFSET 10.63451 0.00000 0.00000
									CHANNELS 3 Xrotation Yrotation Zrotation
									JOINT LeftHandEnd
									{
										OFFSET 2.86944 0.00000 0.00000
										CHANNELS 3 Xrotation Yrotation Zrotation
										End Site
										{
											OFFSET 2.86944 0.00000 0.00000
										}
									}
									JOINT LeftHandThumb1
									{
										OFFSET 1.14778 -1.91296 -0.76518
										CHANNELS 3 Yrotation Xrotation Zrotation
										End Site
										{
											OFFSET 2.77167 -0.74267 0.00000
										}
									}
								}
							}
						}
					}
				}
			}
		}
	}
	JOINT RightUpLeg
	{
		OFFSET -3.52524 0.00000 -1.02984
		CHANNELS 3 Xrotation Yrotation Zrotation
		JOINT RightLeg
		{
			OFFSET 0.00001 0.00000 -17.80965
			CHANNELS 3 Xrotation Yrotation Zrotation
			JOINT RightFoot
			{
				OFFSET 0.00001 0.00000 -17.00908
				CHANNELS 3 Xrotation Yrotation Zrotation
				JOINT RightToeBase
				{
					OFFSET 0.00000 -5.55853 -2.02314
					CHANNELS 3 Xrotation Yrotation Zrotation
					End Site
					{
						OFFSET 0.00000 -2.85188 -0.00000
					}
				}
			}
		}
	}
	JOINT LeftUpLeg
	{
		OFFSET 3.52524 0.00000 -1.02984
		CHANNELS 3 Xrotation Yrotation Zrotation
		JOINT LeftLeg
		{
			OFFSET 0.00001 0.00000 -17.80965
			CHANNELS 3 Xrotation Yrotation Zrotation
			JOINT LeftFoot
			{
				OFFSET 0.00001 0.00000 -17.00908
				CHANNELS 3 Xrotation Yrotation Zrotation
				JOINT LeftToeBase
				{
					OFFSET 0.00000 -5.55853 -2.02314
					CHANNELS 3 Xrotation Yrotation Zrotation
					End Site
					{
						OFFSET 0.00000 -2.85188 -0.00000
					}
				}
			}
		}
	}
}
MOTION
Frames: 6
Frame Time: 0.008342
 5.7462 7.5833 37.2587 3.6847 2.0428 -168.2819 0.1838 3.4964 -2.1076 0.9823 0.6860 -0.3811 -5.7372 -2.5470 -6.5955 -1.7007 0.1440 -0.3432 0.3325 -1.9737 -3.7522 -1.7435 -0.6216 -0.4865 -21.7508 24.1120 24.1065 -37.3233 19.6670 31.5958 0.0000 0.0000 17.4640 -4.1300 31.9045 -4.1263 0.0000 0.0000 0.0000 0.0000 0.0000 0.0000 -23.7617 -32.9881 -30.0177 -34.5163 -14.0605 -14.3891 -0.0000 -0.0000 -23.2577 -10.4054 -29.5725 -8.0223 0.0000 0.0000 0.0000 0.0000 -0.0000 0.0000 -14.3346 0.4509 -26.5065 15.8369 0.0000 0.0000 -2.0065 6.6266 4.4976 1.1193 0.0000 0.0000 11.4868 -0.8240 -2.1302 42.9482 0.0000 0.0000 18.2497 2.9822 -8.7302 -18.8882 0.0000 -0.0000
 5.7581 7.9406 37.3120 3.8110 1.9702 -168.3948 0.2627 3.4178 -1.9989 0.9788 0.6485 -0.3793 -5.6503 -2.5164 -6.3395 -1.6902 0.1522 -0.3160 0.3143 -1.8926 -3.7230 -1.7140 -0.6661 -0.6385 -21.7430 24.0021 24.0352 -37.7671 19.3058 31.3620 0.0000 0.0000 17.7735 -3.7596 32.2343 -4.2849 0.0000 0.0000 0.0000 -0.0000 -0.0000 0.0000 -23.6087 -32.8015 -29.8447 -34.8624 -13.9148 -14.4126 -0.0000 -0.0000 -23.6862 -10.0834 -29.7861 -7.9924 0.0000 -0.0000 -0.0000 0.0000 -0.0000 0.0000 -13.7044 0.1729 -26.2336 15.9041 0.0000 0.0000 -2.5608 6.6382 4.4240 1.0705 0.0000 0.0000 10.4521 -0.8787 -2.1276 45.0386 0.0000 0.0000 18.4702 2.3617 -8.4398 -15.7463 0.0000 -0.0000
 5.7693 8.2926 37.3646 3.9143 1.8967 -168.5022 0.3150 3.3236 -1.8936 0.9713 0.6542 -0.3651 -5.5608 -2.5120 -6.0965 -1.6767 0.1688 -0.2866 0.3107 -1.8021 -3.6955 -1.6775 -0.7073 -0.7854 -21.7324 23.8882 23.9301 -38.2264 18.8998 31.1249 0.0000 0.0000 18.1890 -3.3329 32.5400 -4.4207 -0.0000 -0.0000 -0.0000 -0.0000 -0.0000 -0.0000 -23.4762 -32.5706 -29.6872 -35.1951 -13.7845 -14.4606 -0.0000 -0.0000 -24.1398 -9.7539 -29.9175 -7.9670 -0.0000 0.0000 0.0000 -0.0000 -0.0000 0.0000 -13.0688 -0.0959 -26.0394 15.9087 0.0000 0.0000 -3.1018 6.6645 4.4385 0.8984 0.0000 0.0000 9.3659 -0.9263 -2.0863 47.0911 0.0000 0.0000 18.3645 1.7853 -8.0658 -13.2067 0.0000 -0.0000
 5.7785 8.6390 37.4159 3.9839 1.8445 -168.6097 0.3385 3.2623 -1.7874 0.9581 0.6513 -0.3537 -5.4708 -2.4975 -5.8611 -1.6567 0.1789 -0.2579 0.3159 -1.7021 -3.6635 -1.6338 -0.7455 -0.9208 -21.7216 23.7909 23.8053 -38.6584 18.4690 30.8750 0.0000 0.0000 18.6579 -2.8972 32.7665 -4.5213 -0.0000 0.0000 -0.0000 -0.0000 -0.0000 -0.0000 -23.3435 -32.3404 -29.5060 -35.5048 -13.6437 -14.5332 -0.0000 -0.0000 -24.5684 -9.4427 -29.9546 -7.9432 0.0000 -0.0000 -0.0000 -0.0000 -0.0000 0.0000 -12.4461 -0.3265 -25.9048 15.8775 0.0000 0.0000 -3.6444 6.6979 4.5247 0.6616 0.0000 0.0000 8.2319 -0.9405 -2.0109 49.0753 0.0000 0.0000 17.9526 1.2772 -7.6087 -11.3916 0.0000 -0.0000
 5.7859 8.9812 37.4649 4.0290 1.8007 -168.7215 0.3374 3.2239 -1.6845 0.9380 0.6340 -0.3450 -5.3793 -2.4749 -5.6347 -1.6315 0.1825 -0.2274 0.3325 -1.5930 -3.6288 -1.5806 -0.7804 -1.0393 -21.7099 23.7319 23.6801 -39.0176 18.0381 30.5942 0.0000 0.0000 19.1252 -2.4921 32.8787 -4.5865 0.0000 0.0000 0.0000 -0.0000 -0.0000 0.0000 -23.2159 -32.1249 -29.3167 -35.7362 -13.5092 -14.6039 -0.0000 -0.0000 -24.9273 -9.1861 -29.8923 -7.9232 0.0000 0.0000 0.0000 0.0000 -0.0000 0.0000 -11.8286 -0.5346 -25.8332 15.8132 0.0000 0.0000 -4.1873 6.7266 4.6773 0.4113 0.0000 0.0000 7.0656 -0.9423 -1.8909 50.9732 0.0000 0.0000 17.2549 0.8445 -7.0818 -10.3353 0.0000 -0.0000
 5.7910 9.3193 37.5110 4.0472 1.7705 -168.8462 0.3051 3.2075 -1.5807 0.9183 0.6078 -0.3424 -5.2891 -2.4399 -5.4192 -1.6020 0.1734 -0.1948 0.3631 -1.4755 -3.5901 -1.5207 -0.8140 -1.1353 -21.6898 23.7170 23.5708 -39.2818 17.6363 30.2819 0.0000 0.0000 19.5371 -2.1599 32.8666 -4.6101 -0.0000 0.0000 -0.0000 -0.0000 -0.0000 -0.0000 -23.0861 -31.9413 -29.1165 -35.8709 -13.3848 -14.6583 -0.0000 -0.0000 -25.1904 -8.9971 -29.7483 -7.9026 0.0000 -0.0000 0.0000 0.0000 0.0000 0.0000 -11.2258 -0.7138 -25.8070 15.7321 0.0000 0.0000 -4.7327 6.7407 4.8812 0.1885 0.0000 0.0000 5.8740 -0.9274 -1.7204 52.7637 0.0000 0.0000 16.3115 0.4896 -6.4907 -10.0040 0.0000 -0.0000
